<svg width="60" height="60" viewBox="0 0 60 60" fill="none" xmlns="http://www.w3.org/2000/svg">
<g clip-path="url(#clip0_332_2)">
<g clip-path="url(#clip1_332_2)">
<mask id="mask0_332_2" style="mask-type:luminance" maskUnits="userSpaceOnUse" x="1" y="-2" width="58" height="64">
<path d="M59 -2H1V62H59V-2Z" fill="white"/>
</mask>
<g mask="url(#mask0_332_2)">
<path d="M28.9545 16.383H11.4648V24.2506H28.9545V16.383Z" fill="white"/>
<path d="M13.5262 52.3164H16.2163C16.2163 54.2301 15.7436 55.7005 14.7983 56.7277C13.8529 57.7549 12.5183 58.2685 10.7945 58.2685C6.99919 58.2685 5.10156 56.0101 5.10156 51.4933V50.2269C5.10156 46.667 6.07471 44.4367 8.021 43.5362C8.78561 43.1704 9.7101 42.9874 10.7945 42.9874C12.3793 42.9874 13.6652 43.4307 14.6523 44.3171C15.6532 45.1895 16.1537 46.4559 16.1537 48.1163H13.4428C13.2899 47.2861 13.0188 46.6599 12.6295 46.2378C12.2403 45.8157 11.6286 45.6046 10.7945 45.6046C9.82131 45.6046 9.09841 45.9142 8.62574 46.5333C8.29209 46.9695 8.09746 47.7153 8.04185 48.7706C8.01404 49.1083 8.00014 49.5656 8.00014 50.1425V51.4511C8.00014 53.0692 8.22258 54.1738 8.66744 54.7648C9.12621 55.3558 9.83522 55.6513 10.7945 55.6513C11.7676 55.6513 12.4349 55.3839 12.7964 54.8492C13.1717 54.3005 13.415 53.4562 13.5262 52.3164ZM29.5711 49.9314V51.0712C29.5711 53.5899 29.0984 55.4191 28.1531 56.5588C27.2216 57.6986 25.7202 58.2685 23.6488 58.2685C21.5774 58.2685 20.076 57.6986 19.1445 56.5588C18.227 55.4191 17.7682 53.5688 17.7682 51.0079V49.9103C17.7682 47.5745 18.2339 45.8368 19.1654 44.697C20.1107 43.5573 21.5982 42.9874 23.6279 42.9874C25.6715 42.9874 27.173 43.5643 28.1322 44.7182C29.0914 45.872 29.5711 47.6097 29.5711 49.9314ZM26.6725 51.0079V50.2269C26.6725 48.8761 26.5057 47.7997 26.172 46.9976C25.7827 46.069 24.9486 45.6046 23.6696 45.6046C22.3767 45.6046 21.5357 46.069 21.1464 46.9976C20.8267 47.7575 20.6668 48.8339 20.6668 50.2269V51.0079C20.6668 52.823 20.917 54.0472 21.4175 54.6804C21.6121 54.9477 21.8971 55.1799 22.2725 55.3769C22.6617 55.5598 23.1205 55.6513 23.6488 55.6513C24.191 55.6513 24.6497 55.5598 25.0251 55.3769C25.4004 55.194 25.6924 54.9688 25.9009 54.7015C26.1094 54.4341 26.2693 54.0824 26.3805 53.6462C26.5752 52.9567 26.6725 52.0772 26.6725 51.0079ZM43.3039 50.5646L43.3248 52.1898C43.2692 53.217 43.144 54.0823 42.9494 54.7859C42.7548 55.4894 42.3725 56.1297 41.8025 56.7066C40.8571 57.6634 39.4808 58.1418 37.6736 58.1418C35.5466 58.1418 34.0868 57.8604 33.2944 57.2976C32.502 56.7207 32.1058 55.6864 32.1058 54.1949V43.1141H37.8821C39.5504 43.1141 40.8571 43.5925 41.8025 44.5493C42.5671 45.3232 43.0189 46.266 43.1579 47.3776C43.2553 48.1655 43.3039 49.2279 43.3039 50.5646ZM39.7797 54.5959C40.0439 54.2723 40.2107 53.8291 40.2802 53.2662C40.3636 52.6893 40.4053 51.7958 40.4053 50.5857C40.4053 49.3756 40.3636 48.5032 40.2802 47.9685C40.2107 47.4198 40.0439 46.9836 39.7797 46.6599C39.2793 46.0408 38.5564 45.7313 37.611 45.7313H35.0044V54.0472C35.0044 54.61 35.1921 54.997 35.5674 55.208C35.9428 55.4191 36.6101 55.5246 37.5693 55.5246C38.5425 55.5246 39.2793 55.2151 39.7797 54.5959ZM55.6319 58.1418H50.3769C48.7087 58.1418 47.5339 57.8534 46.8527 57.2764C46.1854 56.6855 45.8518 55.6513 45.8518 54.1738V43.1141H55.6319V45.7313H48.7504V49.256H53.5674L53.3589 51.8732H48.7504V53.9627C48.7504 54.5537 48.8824 54.9618 49.1466 55.1869C49.4107 55.4121 49.8903 55.5246 50.5855 55.5246H55.6319V58.1418Z" fill="white"/>
<path d="M54.5373 11.1631H46.7951C46.4248 11.1631 46.0677 11.3022 45.7929 11.5535L35.7559 20.7328H35.1953L35.7559 31.3995L39.1567 28.4113L46.5185 37.6807C46.8022 38.038 47.2306 38.2458 47.6835 38.2458H54.53C55.7729 38.2458 56.4729 36.7999 55.7114 35.8057L45.5845 22.5863L55.1835 12.7256C55.4365 12.4658 55.5135 12.079 55.3796 11.7402C55.2419 11.3916 54.9083 11.1631 54.5373 11.1631Z" fill="white"/>
<path d="M34.484 3.21985H28.5046C27.679 3.21985 27.0098 3.89724 27.0098 4.73285V36.5815C27.0098 37.4172 27.679 38.0946 28.5046 38.0946H34.484C35.3096 38.0946 35.9788 37.4172 35.9788 36.5815V4.73285C35.9788 3.89724 35.3096 3.21985 34.484 3.21985Z" fill="white"/>
<path d="M11.7633 3.21985H5.78391C4.95833 3.21985 4.28906 3.89724 4.28906 4.73285V36.5815C4.28906 37.4172 4.95833 38.0946 5.78391 38.0946H11.7633C12.5889 38.0946 13.2581 37.4172 13.2581 36.5815V4.73285C13.2581 3.89724 12.5889 3.21985 11.7633 3.21985Z" fill="white"/>
</g>
</g>
</g>
<defs>
<clipPath id="clip0_332_2">
<rect width="60" height="60" fill="white"/>
</clipPath>
<clipPath id="clip1_332_2">
<rect width="58" height="64" fill="white" transform="translate(1 -2)"/>
</clipPath>
</defs>
</svg>
