<svg width="96" height="105" viewBox="0 0 96 105" fill="none" xmlns="http://www.w3.org/2000/svg">
<g clip-path="url(#clip0_260_49)">
<mask id="mask0_260_49" style="mask-type:luminance" maskUnits="userSpaceOnUse" x="0" y="0" width="96" height="105">
<path d="M96 0H0V105H96V0Z" fill="white"/>
</mask>
<g mask="url(#mask0_260_49)">
<path d="M46.2688 30.1594H17.3203V43.0672H46.2688V30.1594Z" fill="white"/>
<path d="M20.7333 89.1128H25.1858C25.1858 92.2524 24.4035 94.6648 22.8388 96.35C21.2741 98.0352 19.0651 98.8778 16.2118 98.8778C9.92997 98.8778 6.78906 95.1726 6.78906 87.7623V85.6847C6.78906 79.8441 8.39978 76.1851 11.6212 74.7077C12.8868 74.1075 14.417 73.8074 16.2118 73.8074C18.835 73.8074 20.9634 74.5346 22.5971 75.9889C24.2539 77.4202 25.0823 79.4979 25.0823 82.2219H20.5952C20.3421 80.8599 19.8934 79.8326 19.2491 79.14C18.6049 78.4475 17.5924 78.1012 16.2118 78.1012C14.6011 78.1012 13.4045 78.6091 12.6222 79.6248C12.0699 80.3405 11.7478 81.564 11.6557 83.2954C11.6097 83.8494 11.5867 84.5997 11.5867 85.5461V87.6931C11.5867 90.3479 11.9549 92.16 12.6912 93.1296C13.4505 94.0992 14.6241 94.584 16.2118 94.584C17.8225 94.584 18.927 94.1454 19.5253 93.2681C20.1465 92.3678 20.5492 90.9827 20.7333 89.1128ZM47.2903 85.1999V87.0698C47.2903 91.202 46.508 94.2031 44.9432 96.073C43.4016 97.9429 40.9164 98.8778 37.4879 98.8778C34.0594 98.8778 31.5743 97.9429 30.0326 96.073C28.5139 94.2031 27.7545 91.1674 27.7545 86.9659V85.1652C27.7545 81.3331 28.5254 78.4821 30.0671 76.6122C31.6318 74.7423 34.0939 73.8074 37.4534 73.8074C40.8359 73.8074 43.321 74.7539 44.9087 76.6468C46.4964 78.5398 47.2903 81.3908 47.2903 85.1999ZM42.4926 86.9659V85.6847C42.4926 83.4685 42.2165 81.7025 41.6643 80.3866C41.02 78.863 39.6394 78.1012 37.5224 78.1012C35.3825 78.1012 33.9903 78.863 33.3461 80.3866C32.8168 81.6332 32.5522 83.3992 32.5522 85.6847V86.9659C32.5522 89.9439 32.9664 91.9523 33.7948 92.9911C34.1169 93.4297 34.5886 93.8106 35.2099 94.1338C35.8542 94.4339 36.6135 94.584 37.4879 94.584C38.3853 94.584 39.1447 94.4339 39.7659 94.1338C40.3872 93.8337 40.8704 93.4643 41.2156 93.0257C41.5607 92.5871 41.8254 92.01 42.0094 91.2943C42.3316 90.1632 42.4926 88.7204 42.4926 86.9659ZM70.0205 86.2387L70.055 88.905C69.963 90.5903 69.7559 92.01 69.4338 93.1642C69.1116 94.3185 68.4788 95.3689 67.5354 96.3154C65.9707 97.8851 63.6927 98.67 60.7014 98.67C57.1808 98.67 54.7647 98.2083 53.4531 97.2849C52.1415 96.3384 51.4857 94.6417 51.4857 92.1947V74.0151H61.0465C63.8077 74.0151 65.9707 74.8 67.5354 76.3698C68.801 77.6395 69.5488 79.1862 69.7789 81.0099C69.94 82.3027 70.0205 84.0456 70.0205 86.2387ZM64.1874 92.8526C64.6246 92.3216 64.9007 91.5945 65.0158 90.671C65.1538 89.7246 65.2229 88.2587 65.2229 86.2733C65.2229 84.288 65.1538 82.8567 65.0158 81.9795C64.9007 81.0792 64.6246 80.3635 64.1874 79.8326C63.359 78.8168 62.1625 78.309 60.5978 78.309H56.2834V91.9523C56.2834 92.8757 56.594 93.5105 57.2153 93.8568C57.8366 94.2031 58.9411 94.3762 60.5288 94.3762C62.1395 94.3762 63.359 93.8683 64.1874 92.8526ZM90.4255 98.67H81.7276C78.9663 98.67 77.022 98.1968 75.8945 97.2503C74.79 96.2807 74.2377 94.584 74.2377 92.16V74.0151H90.4255V78.309H79.0354V84.0918H87.0084L86.6633 88.3856H79.0354V91.8138C79.0354 92.7833 79.254 93.4528 79.6912 93.8222C80.1284 94.1915 80.9222 94.3762 82.0727 94.3762H90.4255V98.67Z" fill="white"/>
<path d="M88.6121 21.5957H75.7973C75.1844 21.5957 74.5933 21.8239 74.1386 22.2363L57.5255 37.2961H56.5977L57.5255 54.7961L63.1544 49.8936L75.3394 65.1012C75.809 65.6874 76.5182 66.0283 77.2678 66.0283H88.5999C90.6571 66.0283 91.8158 63.656 90.5553 62.025L73.7935 40.3368L89.6815 24.1593C90.1003 23.7329 90.2277 23.0983 90.0062 22.5426C89.7782 21.9706 89.226 21.5957 88.6121 21.5957Z" fill="white"/>
<path d="M55.4219 8.56372H45.525C44.1585 8.56372 43.0508 9.67507 43.0508 11.046V63.2978C43.0508 64.6687 44.1585 65.78 45.525 65.78H55.4219C56.7884 65.78 57.8961 64.6687 57.8961 63.2978V11.046C57.8961 9.67507 56.7884 8.56372 55.4219 8.56372Z" fill="white"/>
<path d="M17.8145 8.56372H7.91759C6.55111 8.56372 5.44336 9.67507 5.44336 11.046V63.2978C5.44336 64.6687 6.55111 65.78 7.91759 65.78H17.8145C19.181 65.78 20.2887 64.6687 20.2887 63.2978V11.046C20.2887 9.67507 19.181 8.56372 17.8145 8.56372Z" fill="white"/>
</g>
</g>
<defs>
<clipPath id="clip0_260_49">
<rect width="96" height="105" fill="white"/>
</clipPath>
</defs>
</svg>
